<svg xmlns="http://www.w3.org/2000/svg" viewBox="0 0 200 200">
  <defs>
    <style>
      .shield-outline { fill: none; stroke: #001573; stroke-width: 8; }
      .shield-inner { fill: white; }
      .speech-bubble { fill: #001573; }
      .dot { fill: white; }
    </style>
  </defs>
  <path class="shield-outline" d="M100,10 L180,50 C180,120 150,180 100,190 C50,180 20,120 20,50 Z"/>
  <path class="shield-inner" d="M100,18 L170,54 C170,116 144,172 100,182 C56,172 30,116 30,54 Z"/>
  <path class="speech-bubble" d="M120,100 C140,100 155,85 155,70 C155,55 140,40 120,40 C100,40 85,55 85,70 C85,85 100,100 120,100 Z M85,95 L75,115 L90,100 Z"/>
  <path class="speech-bubble" d="M80,130 C100,130 115,115 115,100 C115,85 100,70 80,70 C60,70 45,85 45,100 C45,115 60,130 80,130 Z M115,125 L125,145 L110,130 Z"/>
  <circle class="dot" cx="110" cy="60" r="5"/>
  <circle class="dot" cx="130" cy="60" r="5"/>
  <circle class="dot" cx="70" cy="90" r="5"/>
  <circle class="dot" cx="90" cy="90" r="5"/>
</svg>